<svg id="Capa_3" data-name="Capa 3" xmlns="http://www.w3.org/2000/svg" viewBox="0 0 327.96 314.04"><defs><style>.cls-1{font-size:50px;font-family:UnicaOne-Regular, Unica One;}</style></defs><text class="cls-1" transform="translate(67.43 141.83) rotate(-74.49)">C</text><text class="cls-1" transform="translate(73.35 119.73) rotate(-62.41)">a</text><text class="cls-1" transform="translate(82.99 98.71) rotate(-46.8)">m</text><text class="cls-1" transform="translate(108.95 72.82) rotate(-33.98)">i</text><text class="cls-1" transform="translate(118.71 65.47) rotate(-24.35)">n</text><text class="cls-1" transform="translate(141.01 55.2) rotate(-11.64)">o</text><text class="cls-1" transform="translate(212.08 56.12) rotate(25.93)">V</text><text class="cls-1" transform="matrix(0.82, 0.57, -0.57, 0.82, 232.33, 66.32)">i</text><text class="cls-1" transform="translate(242.68 72.89) rotate(44.51)">e</text><text class="cls-1" transform="translate(259.96 88.27) rotate(60.05)">w</text><text class="cls-1" transform="matrix(0.22, 0.98, -0.98, 0.22, 37.21, 178.26)">P</text><text class="cls-1" transform="translate(43.51 204.91) rotate(65.65)">a</text><text class="cls-1" transform="matrix(0.57, 0.82, -0.82, 0.57, 56.03, 230.98)">t</text><text class="cls-1" transform="matrix(0.71, 0.7, -0.7, 0.71, 69.1, 249.48)">c</text><text class="cls-1" transform="matrix(0.85, 0.53, -0.53, 0.85, 90.12, 269.66)">h</text><text class="cls-1" transform="translate(117.16 285.92) rotate(19.52)">e</text><text class="cls-1" transform="translate(145.15 295.32) rotate(7.31)">s</text><text class="cls-1" transform="translate(188.94 297.94) rotate(-10.56)">C</text><text class="cls-1" transform="translate(217.42 292.18) rotate(-22.8)">o</text><text class="cls-1" transform="matrix(0.78, -0.62, 0.62, 0.78, 246.44, 280.06)">m</text><text class="cls-1" transform="matrix(0.6, -0.8, 0.8, 0.6, 279.82, 251.47)">p</text><text class="cls-1" transform="translate(295.95 229.37) rotate(-64.86)">a</text><text class="cls-1" transform="translate(308.15 202.33) rotate(-77.4)">n</text><text class="cls-1" transform="translate(314.27 172.08) rotate(-89.57)">y</text><circle cx="191.87" cy="147.54" r="30.5"/><path d="M148,225.88,151,236a83.2,83.2,0,0,0,16.67-2.09l-11.18-36.71Z" transform="translate(25.37 6.04)"/><path d="M140.92,235.54l2.87-9.65-12.71-41.72-7.31,24.54,7.71,25.3A81.05,81.05,0,0,0,140.92,235.54Z" transform="translate(25.37 6.04)"/><path d="M145,235.86c.62,0,1.23.08,1.86.1l-1-3.14Z" transform="translate(25.37 6.04)"/><path d="M89.1,210.43a82.81,82.81,0,0,0,24.7,17.74l5.79-19.45L104.44,159Z" transform="translate(25.37 6.04)"/><path d="M117.55,229.58a82.22,82.22,0,0,0,9.39,3.27l-5.24-17.2Z" transform="translate(25.37 6.04)"/><path d="M149,68A85,85,0,0,0,85.29,209.23L104.4,145.1l17.26,56.68L131,170.3,145.86,219l10.63-35.65,15.67,51.48A85,85,0,0,0,149,68ZM79.5,171a6.5,6.5,0,1,1,6.5-6.5A6.5,6.5,0,0,1,79.5,171Zm7-43a6.5,6.5,0,1,1,6.5-6.5A6.5,6.5,0,0,1,86.5,128Zm29-29a6.5,6.5,0,1,1,6.5-6.5A6.5,6.5,0,0,1,115.5,99Zm44-21a6.5,6.5,0,1,1-6.5,6.5A6.5,6.5,0,0,1,159.5,78Zm28,139a6.5,6.5,0,1,1,6.5-6.5A6.5,6.5,0,0,1,187.5,217Zm-21-41A34.5,34.5,0,1,1,201,141.5,34.54,34.54,0,0,1,166.5,176Zm32-66a6.5,6.5,0,1,1,6.5-6.5A6.5,6.5,0,0,1,198.5,110Zm15,78a6.5,6.5,0,1,1,6.5-6.5A6.5,6.5,0,0,1,213.5,188Zm4-40a6.5,6.5,0,1,1,6.5-6.5A6.5,6.5,0,0,1,217.5,148Z" transform="translate(25.37 6.04)"/></svg>